<svg xmlns="http://www.w3.org/2000/svg" viewBox="0 0 128 128">
  <!-- Background -->
  <circle cx="64" cy="64" r="60" fill="#4a7c59"/>
  
  <!-- Tower Base -->
  <rect x="44" y="70" width="40" height="30" fill="#8b7355"/>
  <rect x="40" y="95" width="48" height="10" fill="#6b5344"/>
  
  <!-- Tower Body -->
  <rect x="48" y="40" width="32" height="35" fill="#a0522d"/>
  
  <!-- Tower Top -->
  <polygon points="64,15 44,40 84,40" fill="#c9302c"/>
  
  <!-- Windows -->
  <rect x="54" y="50" width="8" height="10" fill="#1a1a1a"/>
  <rect x="66" y="50" width="8" height="10" fill="#1a1a1a"/>
  <rect x="58" y="75" width="12" height="15" fill="#1a1a1a"/>
  
  <!-- Flag -->
  <rect x="64" y="15" width="2" height="20" fill="#4a4a4a"/>
  <polygon points="66,15 66,25 80,20" fill="#ffd700"/>
  
  <!-- Decorative Battlements -->
  <rect x="44" y="35" width="8" height="8" fill="#a0522d"/>
  <rect x="56" y="35" width="8" height="8" fill="#a0522d"/>
  <rect x="68" y="35" width="8" height="8" fill="#a0522d"/>
  
  <!-- Stars decoration -->
  <circle cx="25" cy="30" r="3" fill="#ffd700"/>
  <circle cx="100" cy="45" r="2" fill="#ffd700"/>
  <circle cx="95" cy="80" r="2.5" fill="#ffd700"/>
</svg>
